# xmcd
#
# Track frame offsets:
#	150
#	27134
#	59306
#	81144
#	109039
#	133063
#	166639
#	194426
#	220692
#	236443
#	260974
#	280712
#	309639
#
# Disc length: 4409 seconds
#
# Revision: 1
# Processed by: cddbd v1.5.2PL0 Copyright (c) Steve Scherf et al.
# Submitted via: audiograbber 1.83.01
#
DISCID=b111370d
DTITLE=Medicine Head - Only The Roses [CD2]
DYEAR=2005
DGENRE=Rock
TTITLE0=Let The Kid Know
TTITLE1=Big Driftaway
TTITLE2=Indian Queen
TTITLE3=Only The Roses
TTITLE4=Slip Und Slide
TTITLE5=Rising Sun
TTITLE6=Stong Heart
TTITLE7=Return Of The Buffalo
TTITLE8=Pictures In The Sky
TTITLE9=Chaining Man
TTITLE10=One More Chance To Run
TTITLE11=Walking Blues
TTITLE12=One And One Is ONE
EXTD=
EXTT0=
EXTT1=
EXTT2=
EXTT3=
EXTT4=
EXTT5=
EXTT6=
EXTT7=
EXTT8=
EXTT9=
EXTT10=
EXTT11=
EXTT12=
PLAYORDER=
